<svg width="320" height="320" viewBox="0 0 320 320" fill="none" xmlns="http://www.w3.org/2000/svg">
<rect width="320" height="320" fill="#F0F2F7"/>
<path d="M245.401 62.5756H74.5985C66.536 62.5756 60 69.1076 60 77.1652V242.027C60 250.085 66.536 256.617 74.5985 256.617H245.401C253.464 256.617 260 250.085 260 242.027V77.1652C260 69.1076 253.464 62.5756 245.401 62.5756Z" fill="#ED1C24"/>
<path d="M105.255 142.38C109.197 142.38 114.307 140.922 114.307 135.961C114.307 130.125 108.905 129.396 105.547 129.396H98.9781V117.432H104.818C110.073 117.432 112.701 115.827 112.701 111.305C112.701 106.636 109.489 105.177 104.818 105.177H93.8686V142.38H105.255ZM129.197 132.168C129.927 134.794 129.781 137.858 129.781 137.858C129.781 137.858 130.073 141.505 127.883 145.882C125.11 151.134 121.022 153.177 121.022 153.177C121.022 153.177 118.54 154.636 115.037 155.219C111.241 155.949 106.277 155.949 106.277 155.949H78.9781V92.6301H111.971C111.971 92.6301 116.788 92.6301 120.292 94.3808C123.796 95.9857 125.985 99.1954 125.985 99.1954C125.985 99.1954 128.613 102.697 128.905 108.679C129.197 113.493 126.569 117.432 126.569 117.432C126.569 117.432 125.693 119.475 124.234 120.934C123.032 121.812 121.702 122.5 120.292 122.976C120.292 122.976 123.942 123.56 126.423 126.77C128.029 128.958 128.613 129.688 129.343 132.314M159.562 114.806L172.117 156.095H188.175L166.277 92.776H150.803L128.613 155.949H164.526V142.235H149.051L157.81 114.806L158.54 112.034L159.562 114.806ZM241.314 92.776V156.241H225.839L206.423 123.122L205.255 120.642V155.949H189.927V92.6301H205.401L224.964 126.916L225.985 128.958V92.6301L241.314 92.776ZM117.81 196.362C117.81 183.231 111.533 177.687 99.5621 177.687H94.0146V214.161H103.796C109.197 214.161 117.664 212.119 117.664 196.362M132.993 196.8C132.993 219.122 116.934 227.438 105.255 227.438H78.9781V164.411H105.255C115.182 164.265 132.993 169.079 132.993 196.8ZM159.562 186.441L172.117 227.583H188.175L166.277 164.411H150.803L128.613 227.583H164.526V213.869H149.051L157.81 186.441L158.54 183.815L159.562 186.441ZM205.255 227.583H189.927V164.411H205.109L205.255 227.583Z" fill="white"/>
</svg>
